{"title":"Coast Australia - S01E01 - The Kimberley","uid":15206906,"size":1299095464,"categoryP":"video","categoryS":"tv_shows","magnet":"?xt=urn:btih:6e346e8927db90c51fab139dd8aab428c037c42d&amp;dn=Coast+Australia+-+S01E01+-+The+Kimberley&amp;tr=udp%3A%2F%2Ftracker.leechers-paradise.org%3A6969&amp;tr=udp%3A%2F%2Fzer0day.ch%3A1337&amp;tr=udp%3A%2F%2Fopen.demonii.com%3A1337&amp;tr=udp%3A%2F%2Ftracker.coppersurfer.tk%3A6969&amp;tr=udp%3A%2F%2Fexodus.desync.com%3A6969","seeders":3,"leechers":2,"uploader":"Bullrout","files":1,"time":1467635394,"description":"Coast Australia - S01E01 - The Kimberley\r\n\r\nIn the pristine Kimberley of Western Australia Neil Oliver discovers Broome's dark pearling history and the delicate science of their cultivation. Tim Flannery walks in primeval tracks along the legendary Dinosaur Coast. Xanthe Mallett explores a unique maritime war grave. Brendan Moar learns the art of Indigenous Raft making and Emma Johnston investigates the lush, protected habitat of migratory shorebirds. Finally Neil Oliver wrestles the southern hemisphere's biggest tides at the surging Horizontal Falls, and finally experiences the dreaming stories through a little sacred maintenance on some ancient rock art.\r\n\r\nComplete name : Coast Australia - S01E01 - The Kimberley.mkv\r\nFormat : Matroska\r\nFormat version : Version 4 / Version 2\r\nFile size : 1.21 GiB\r\nDuration : 51mn 58s\r\nOverall bit rate mode : Variable\r\nOverall bit rate : 3 332 Kbps\r\nEncoded date : UTC 2016-07-04 00:39:27\r\nWriting application : mkvmerge v9.2.0 ('Photograph') 64bit\r\nWriting library : libebml v1.3.3 + libmatroska v1.4.4\r\n\r\nVideo\r\nID : 2\r\nFormat : AVC\r\nFormat/Info : Advanced Video Codec\r\nFormat profile :   \r\nFormat settings, CABAC : Yes\r\nFormat settings, ReFrames : 3 frames\r\nCodec ID : V_MPEG4/ISO/AVC\r\nDuration : 51mn 58s\r\nBit rate mode : Variable\r\nBit rate : 2 947 Kbps\r\nMaximum bit rate : 3 000 Kbps\r\nWidth : 1 280 pixels\r\nHeight : 720 pixels\r\nDisplay aspect ratio : 16:9\r\nFrame rate mode : Constant\r\nFrame rate : 25.000 fps\r\nStandard : PAL\r\nColor space : YUV\r\nChroma subsampling : 4:2:0\r\nBit depth : 8 bits\r\nScan type : Progressive\r\nBits/(Pixel*Frame) : 0.128\r\nStream size : 1.07 GiB (88%)\r\nWriting library : x264 core 112\r\nDefault : Yes\r\nForced : No\r\nColor range : Limited\r\nColor primaries : BT.709\r\nTransfer characteristics : BT.709\r\nMatrix coefficients : BT.709\r\n\r\nAudio\r\nID : 1\r\nFormat : AC-3\r\nFormat/Info : Audio Coding 3\r\nMode extension : CM (complete main)\r\nFormat settings, Endianness : Big\r\nCodec ID : A_AC3\r\nDuration : 51mn 58s\r\nBit rate mode : Constant\r\nBit rate : 384 Kbps\r\nChannel(s) : 6 channels\r\nChannel positions : Front: L C R, Side: L R, LFE\r\nSampling rate : 48.0 KHz\r\nFrame rate : 31.250 fps (1536 spf)\r\nCompression mode : Lossy\r\nStream size : 143 MiB (12%)\r\nDefault : Yes\r\nForced : No","torrent":{"xt":"urn:btih:6e346e8927db90c51fab139dd8aab428c037c42d","amp;dn":"Coast+Australia+-+S01E01+-+The+Kimberley","amp;tr":["udp%3A%2F%2Ftracker.leechers-paradise.org%3A6969","udp%3A%2F%2Fzer0day.ch%3A1337","udp%3A%2F%2Fopen.demonii.com%3A1337","udp%3A%2F%2Ftracker.coppersurfer.tk%3A6969","udp%3A%2F%2Fexodus.desync.com%3A6969"],"infoHash":"6e346e8927db90c51fab139dd8aab428c037c42d","infoHashBuffer":{"type":"Buffer","data":[110,52,110,137,39,219,144,197,31,171,19,157,216,170,180,40,192,55,196,45]},"announce":[],"urlList":[]}}